<?xml version="1.0" encoding="UTF-8" standalone="no"?>
<!-- Generator: Adobe Illustrator 19.0.0, SVG Export Plug-In . SVG Version: 6.00 Build 0)  -->

<svg
   version="1.1"
   id="Layer_1"
   x="0px"
   y="0px"
   viewBox="0 0 683.411 98.411"
   xml:space="preserve"
   sodipodi:docname="rolling-pin.svg"
   width="683.41101"
   height="98.411003"
   inkscape:version="1.2 (dc2aedaf03, 2022-05-15)"
   xmlns:inkscape="http://www.inkscape.org/namespaces/inkscape"
   xmlns:sodipodi="http://sodipodi.sourceforge.net/DTD/sodipodi-0.dtd"
   xmlns="http://www.w3.org/2000/svg"
   xmlns:svg="http://www.w3.org/2000/svg"><defs
   id="defs118" /><sodipodi:namedview
   id="namedview116"
   pagecolor="#ffffff"
   bordercolor="#000000"
   borderopacity="0.25"
   inkscape:showpageshadow="2"
   inkscape:pageopacity="0.0"
   inkscape:pagecheckerboard="0"
   inkscape:deskcolor="#d1d1d1"
   showgrid="false"
   inkscape:zoom="2.0646909"
   inkscape:cx="286.72572"
   inkscape:cy="224.48881"
   inkscape:window-width="2560"
   inkscape:window-height="1351"
   inkscape:window-x="-9"
   inkscape:window-y="-9"
   inkscape:window-maximized="1"
   inkscape:current-layer="Layer_1" />
<path
   style="fill:#8e692e;stroke-width:0.777327"
   d="m 559.12227,57.472548 c 12.59915,0.0045 40.01312,8.79411 47.43785,11.160444 9.69817,4.393002 5.66912,6.754819 19.98924,6.422821 30.92517,0.01218 55.07635,-11.457713 55.77325,-25.975487 0.12131,-14.180387 -24.40322,-26.007064 -55.32841,-26.019244 -13.74455,-0.0055 -10.33152,2.696961 -20.09902,6.40705 -7.46517,2.360455 -35.02932,11.127969 -47.62848,11.123015 -22.90752,-0.0091 -40.96782,-31.0780237 -41.30291,8.086839 -0.34086,39.84011 18.25095,8.785545 41.15848,8.794562 z"
   id="path61"
   inkscape:transform-center-x="-265.15967"
   inkscape:transform-center-y="-0.20993845" />
<path
   style="fill:#7c5823;stroke-width:0.777327"
   d="m 517.95799,49.353244 c -0.33506,39.16486 18.25673,8.110287 41.16427,8.119304 12.59916,0.0045 40.01313,8.794128 47.43786,11.160444 9.69817,4.393002 5.66912,6.754819 19.98924,6.42283 30.92517,0.01218 55.07635,-11.457722 55.77325,-25.975496"
   id="path63"
   inkscape:transform-center-x="-265.15664"
   inkscape:transform-center-y="12.799692" />
<path
   style="fill:#8e692e;stroke-width:0.777327"
   d="m 502.16321,88.17439 c -9.16269,-0.0036 -16.57042,-4.39571 -16.52419,-9.797749 l 0.49684,-58.072038 c 0.0461,-5.402057 7.52873,-9.788286 16.69174,-9.784687 l 16.03532,0.0055 c 9.16268,0.0036 16.5704,4.395709 16.52419,9.797748 l -0.49683,58.072048 c -0.0462,5.402046 -7.52873,9.788276 -16.69177,9.784669 z"
   id="path65"
   inkscape:transform-center-x="-175.53164"
   inkscape:transform-center-y="0.066094464" />
<path
   style="fill:#7c5823;stroke-width:0.777327"
   d="m 502.16321,88.17439 16.0353,0.0055 c 9.16271,0.0036 16.64554,-4.38263 16.69176,-9.784677 l 0.34663,-40.515378 c 0.0462,-5.402047 -7.36119,-9.79414 -16.52419,-9.797748 l -16.03531,-0.0055 c -9.16271,-0.0036 -16.64552,4.38263 -16.69175,9.784678 l -0.34663,40.515377 c -0.0463,5.402039 7.36118,9.79414 16.52419,9.797748 z"
   id="path67"
   inkscape:transform-center-x="-175.45653"
   inkscape:transform-center-y="8.8444342" />
<ellipse
   style="fill:#9e7539;stroke-width:0.813923"
   cx="167.84676"
   cy="564.78204"
   rx="5.6325655"
   ry="20.322729"
   id="ellipse69"
   transform="matrix(0.65383785,-0.7566347,0.95824065,0.28596303,0,0)"
   inkscape:transform-center-x="-315.96021"
   inkscape:transform-center-y="-14.775706" />
<path
   style="fill:#8e692e;stroke-width:0.777327"
   d="M 124.01743,41.095052 C 111.99385,40.752702 84.579896,31.963537 77.155158,29.59722 67.457003,25.204218 71.486048,22.842391 57.165939,23.174389 26.240764,23.16221 2.0895923,34.632102 1.3926952,49.149887 1.2713728,63.330264 25.795889,75.156941 56.721082,75.169122 c 13.744551,0.0055 10.331511,-2.696971 20.098995,-6.407043 7.465173,-2.360472 35.029333,-11.127986 47.628513,-11.123014 22.90753,0.0091 40.96783,31.078005 41.3029,-8.086846 -0.23471,-39.502714 -18.8265,-8.448141 -41.73406,-8.457167 z"
   id="path71"
   inkscape:transform-center-x="251.40956"
   inkscape:transform-center-y="-0.12746657" />
<path
   style="fill:#7c5823;stroke-width:0.777327"
   d="m 165.18171,49.214367 c 0.33507,-39.164853 -18.25672,-8.110289 -41.16429,-8.119305 -12.02357,-0.34236 -39.437525,-9.131516 -46.862262,-11.497834 -9.698154,-4.393 -5.66911,-6.754827 -19.98922,-6.422829 C 26.240765,23.162201 2.089592,34.632112 1.3926952,49.149887"
   id="path73"
   inkscape:transform-center-x="251.69198"
   inkscape:transform-center-y="-13.104844" />
<path
   style="fill:#8e692e;stroke-width:0.777327"
   d="m 180.97648,10.39322 c 9.1627,0.0036 16.57045,4.395709 16.52422,9.797757 l -0.49685,58.072029 c -0.0462,5.402057 -7.52873,9.788287 -16.69174,9.784678 l -16.03531,-0.0055 c -9.16269,-0.0036 -16.5704,-4.39572 -16.52419,-9.797768 l 0.49682,-58.072029 c 0.0463,-5.402056 7.52874,-9.788286 16.69176,-9.784677 z"
   id="path75"
   inkscape:transform-center-x="162.35476"
   inkscape:transform-center-y="-0.066107037" />
<path
   style="fill:#7c5823;stroke-width:0.777327"
   d="m 180.97648,10.39322 -16.0353,-0.0055 c -9.1627,-0.0036 -16.64551,4.382631 -16.69175,9.784678 l -0.34664,40.515377 c -0.0462,5.402048 7.36119,9.794149 16.52422,9.797748 l 16.03529,0.0055 c 9.16273,0.0036 16.64554,-4.38263 16.69175,-9.784678 l 0.34665,-40.515368 c 0.0463,-5.402047 -7.3612,-9.794158 -16.52422,-9.797757 z"
   id="path77"
   inkscape:transform-center-x="162.27969"
   inkscape:transform-center-y="-8.8444324" />
<ellipse
   style="fill:#9e7539;stroke-width:0.813923"
   cx="57.134373"
   cy="-73.16687"
   rx="5.6325655"
   ry="20.322729"
   id="ellipse79"
   transform="matrix(-0.65383785,0.7566347,-0.95824065,-0.28596303,0,0)"
   inkscape:transform-center-x="302.22658"
   inkscape:transform-center-y="14.869064" />
<path
   style="fill:#d3c097;stroke-width:0.777327"
   d="m 182.52196,97.502183 c -9.16269,-0.0036 -16.57042,-4.39571 -16.5242,-9.797768 l 0.65861,-76.979206 c 0.0462,-5.4020486 7.52874,-9.78828704 16.69176,-9.78467857 l 317.2696,0.12490617 c 9.163,0.00364 16.57043,4.3957005 16.52421,9.7977584 l -0.6586,76.979197 c -0.0463,5.402057 -7.52873,9.788287 -16.69174,9.784679 z"
   id="path81"
   inkscape:transform-center-x="-6.588419"
   inkscape:transform-center-y="-2.3600316e-06" />
<path
   style="fill:#c9af81;stroke-width:0.777327"
   d="m 500.61773,1.0654366 c 9.163,0.00364 16.57043,4.3957005 16.52421,9.7977584 l -0.6586,76.979197 c -0.0463,5.402057 -7.52873,9.788287 -16.69174,9.784679 L 182.52196,97.502183 c -9.16269,-0.0036 -16.57042,-4.39571 -16.5242,-9.797768"
   id="path83"
   inkscape:transform-center-x="-6.5884171"
   inkscape:transform-center-y="0.062451607" />
<g
   id="g85">
</g>
<g
   id="g87">
</g>
<g
   id="g89">
</g>
<g
   id="g91">
</g>
<g
   id="g93">
</g>
<g
   id="g95">
</g>
<g
   id="g97">
</g>
<g
   id="g99">
</g>
<g
   id="g101">
</g>
<g
   id="g103">
</g>
<g
   id="g105">
</g>
<g
   id="g107">
</g>
<g
   id="g109">
</g>
<g
   id="g111">
</g>
<g
   id="g113">
</g>
</svg>
