<?xml version="1.0" encoding="UTF-8" standalone="no"?>
<!-- Generator: Adobe Illustrator 19.0.0, SVG Export Plug-In . SVG Version: 6.00 Build 0)  -->

<svg
   version="1.1"
   id="Layer_1"
   x="0px"
   y="0px"
   viewBox="0 0 585.411 92.411"
   xml:space="preserve"
   sodipodi:docname="rolling-pin.svg"
   width="585.41101"
   height="92.411003"
   inkscape:version="1.2 (dc2aedaf03, 2022-05-15)"
   xmlns:inkscape="http://www.inkscape.org/namespaces/inkscape"
   xmlns:sodipodi="http://sodipodi.sourceforge.net/DTD/sodipodi-0.dtd"
   xmlns="http://www.w3.org/2000/svg"
   xmlns:svg="http://www.w3.org/2000/svg"><defs
   id="defs118" /><sodipodi:namedview
   id="namedview116"
   pagecolor="#ffffff"
   bordercolor="#000000"
   borderopacity="0.25"
   inkscape:showpageshadow="2"
   inkscape:pageopacity="0.0"
   inkscape:pagecheckerboard="0"
   inkscape:deskcolor="#d1d1d1"
   showgrid="false"
   inkscape:zoom="2.0646909"
   inkscape:cx="286.72572"
   inkscape:cy="224.48881"
   inkscape:window-width="2560"
   inkscape:window-height="1351"
   inkscape:window-x="-9"
   inkscape:window-y="-9"
   inkscape:window-maximized="1"
   inkscape:current-layer="Layer_1" />
<path
   style="fill:#8e692e;stroke-width:0.695794"
   d="m 479.38488,53.791116 c 10.79787,0.0042 34.29253,8.221427 40.65576,10.433663 8.31165,4.106924 4.85862,6.314937 17.13142,6.004559 26.50386,0.01139 47.20221,-10.711573 47.79948,-24.283932 0.10397,-13.256944 -20.91434,-24.313454 -47.41823,-24.324841 -11.77952,-0.0051 -8.85444,2.521332 -17.2255,5.989816 -6.3979,2.206739 -30.02127,10.403302 -40.81915,10.398671 -19.63249,-0.0085 -35.11076,-29.0541862 -35.39793,7.560214 -0.29214,37.245675 15.64164,8.21342 35.27415,8.22185 z"
   id="path61"
   inkscape:transform-center-x="-227.2504"
   inkscape:transform-center-y="-0.19626725" />
<path
   style="fill:#7c5823;stroke-width:0.695794"
   d="m 444.10576,46.200551 c -0.28717,36.614398 15.6466,7.582135 35.27911,7.590565 10.79788,0.0042 34.29254,8.221444 40.65577,10.433663 8.31165,4.106924 4.85862,6.314937 17.13142,6.004568 26.50386,0.01139 47.20221,-10.711582 47.79948,-24.283941"
   id="path63"
   inkscape:transform-center-x="-227.2478"
   inkscape:transform-center-y="11.966161" />
<path
   style="fill:#8e692e;stroke-width:0.695794"
   d="m 430.56913,82.493618 c -7.85273,-0.0034 -14.20139,-4.109456 -14.16177,-9.159708 l 0.42581,-54.290318 c 0.0395,-5.050269 6.45236,-9.1508618 14.30536,-9.1474968 l 13.74278,0.0051 c 7.85272,0.0034 14.20137,4.1094558 14.16177,9.1597078 l -0.42581,54.290327 c -0.0396,5.050259 -6.45236,9.150852 -14.30538,9.14748 z"
   id="path65"
   inkscape:transform-center-x="-150.43628"
   inkscape:transform-center-y="0.061769742" />
<path
   style="fill:#7c5823;stroke-width:0.695794"
   d="m 430.56913,82.493618 13.74276,0.0051 c 7.85274,0.0034 14.26576,-4.097228 14.30537,-9.147488 l 0.29709,-37.876968 c 0.0396,-5.05026 -6.30879,-9.156334 -14.16177,-9.159707 l -13.74278,-0.0051 c -7.85274,-0.0034 -14.26575,4.097228 -14.30537,9.147488 l -0.29707,37.876968 c -0.0397,5.050252 6.30877,9.156334 14.16177,9.159707 z"
   id="path67"
   inkscape:transform-center-x="-150.37191"
   inkscape:transform-center-y="8.2684534" />
<ellipse
   style="fill:#9e7539;stroke-width:0.718554"
   cx="151.47206"
   cy="487.98761"
   rx="5.0829468"
   ry="17.551962"
   id="ellipse69"
   transform="matrix(0.62095183,-0.78384873,0.95088531,0.30954342,0,0)"
   inkscape:transform-center-x="-270.78813"
   inkscape:transform-center-y="-13.813469" />
<path
   style="fill:#8e692e;stroke-width:0.695794"
   d="M 106.48599,38.480142 C 96.18139,38.160086 72.686747,29.943282 66.323507,27.731062 58.011875,23.624138 61.464896,21.416116 49.192101,21.726494 22.688227,21.715108 1.9898945,32.438067 1.3926311,46.010437 1.2886539,59.267371 22.306955,70.323881 48.810844,70.335268 c 11.779524,0.0051 8.854439,-2.521341 17.225487,-5.989808 6.397894,-2.206756 30.021276,-10.403319 40.819169,-10.398671 19.63249,0.0085 35.11076,29.054169 35.39792,-7.560221 C 142.05227,9.4563178 126.1185,38.48858 106.48599,38.480142 Z"
   id="path71"
   inkscape:transform-center-x="215.4661"
   inkscape:transform-center-y="-0.11916592" />
<path
   style="fill:#7c5823;stroke-width:0.695794"
   d="M 141.76509,46.070718 C 142.05227,9.4563263 126.1185,38.48858 106.48598,38.480151 96.181391,38.160086 72.686746,29.94329 66.323507,27.73107 58.011876,23.624147 61.464896,21.416125 49.1921,21.726503 22.688228,21.715099 1.9898942,32.438076 1.3926311,46.010437"
   id="path73"
   inkscape:transform-center-x="215.70815"
   inkscape:transform-center-y="-12.251441" />
<path
   style="fill:#8e692e;stroke-width:0.695794"
   d="m 155.30173,9.7776492 c 7.85273,0.0034 14.20141,4.1094558 14.16179,9.1597158 l -0.42582,54.29031 c -0.0396,5.050269 -6.45236,9.150862 -14.30536,9.147488 l -13.74277,-0.0051 c -7.85273,-0.0034 -14.20138,-4.109465 -14.16177,-9.159725 l 0.4258,-54.29031 c 0.0397,-5.050268 6.45237,-9.1508613 14.30538,-9.1474878 z"
   id="path75"
   inkscape:transform-center-x="139.14327"
   inkscape:transform-center-y="-0.061781259" />
<path
   style="fill:#7c5823;stroke-width:0.695794"
   d="m 155.30173,9.7776492 -13.74276,-0.0051 c -7.85274,-0.0034 -14.26576,4.0972288 -14.30537,9.1474878 l -0.29709,37.876968 c -0.0396,5.05026 6.30879,9.156342 14.16179,9.159707 l 13.74277,0.0051 c 7.85274,0.0034 14.26575,-4.097228 14.30536,-9.147488 l 0.29709,-37.87696 c 0.0397,-5.050259 -6.30879,-9.1563503 -14.16179,-9.1597148 z"
   id="path77"
   inkscape:transform-center-x="139.07893"
   inkscape:transform-center-y="-8.2684521" />
<ellipse
   style="fill:#9e7539;stroke-width:0.718554"
   cx="51.555676"
   cy="-63.398396"
   rx="5.0829468"
   ry="17.551962"
   id="ellipse79"
   transform="matrix(-0.62095183,0.78384873,-0.95088531,-0.30954342,0,0)"
   inkscape:transform-center-x="259.01794"
   inkscape:transform-center-y="13.900773" />
<path
   style="fill:#d3c097;stroke-width:0.695794"
   d="m 156.62626,91.213974 c -7.85273,-0.0034 -14.20139,-4.109456 -14.16177,-9.159726 l 0.56445,-71.966229 c 0.0396,-5.0502608 6.45237,-9.1508622 14.30537,-9.14748871 L 429.2446,1.0573024 c 7.85298,0.0034 14.20139,4.1094473 14.16178,9.1597166 l -0.56444,71.966221 c -0.0397,5.050269 -6.45237,9.150862 -14.30537,9.147489 z"
   id="path81"
   inkscape:transform-center-x="-5.6464926"
   inkscape:transform-center-y="-2.3147408e-06" />
<path
   style="fill:#c9af81;stroke-width:0.695794"
   d="m 429.2446,1.0573024 c 7.85298,0.0034 14.20139,4.1094473 14.16178,9.1597166 l -0.56444,71.966221 c -0.0397,5.050269 -6.45237,9.150862 -14.30537,9.147489 L 156.62626,91.213974 c -7.85273,-0.0034 -14.20139,-4.109456 -14.16177,-9.159726"
   id="path83"
   inkscape:transform-center-x="-5.6464909"
   inkscape:transform-center-y="0.058384565" />
<g
   id="g85">
</g>
<g
   id="g87">
</g>
<g
   id="g89">
</g>
<g
   id="g91">
</g>
<g
   id="g93">
</g>
<g
   id="g95">
</g>
<g
   id="g97">
</g>
<g
   id="g99">
</g>
<g
   id="g101">
</g>
<g
   id="g103">
</g>
<g
   id="g105">
</g>
<g
   id="g107">
</g>
<g
   id="g109">
</g>
<g
   id="g111">
</g>
<g
   id="g113">
</g>
</svg>
